<svg width="301" height="143" viewBox="0 0 301 143" fill="none" xmlns="http://www.w3.org/2000/svg">
<path d="M149.131 28.4868C148.79 28.4868 148.488 28.395 148.226 28.2113C147.964 28.0276 147.78 27.7915 147.675 27.5028L141.535 9.08235C141.377 8.42635 141.39 7.90811 141.574 7.52763C141.758 7.14715 142.125 6.95691 142.676 6.95691C143.017 6.95691 143.319 7.04875 143.581 7.23243C143.844 7.41611 144.041 7.70475 144.172 8.09835L149.643 24.8263H148.777L153.854 8.13771C153.959 7.79659 154.137 7.51451 154.386 7.29147C154.635 7.06843 154.957 6.95691 155.35 6.95691C155.744 6.95691 156.065 7.06187 156.314 7.27179C156.564 7.48171 156.741 7.77035 156.846 8.13771L161.687 24.4327H161.018L166.371 8.09835C166.633 7.33739 167.119 6.95691 167.827 6.95691C168.405 6.95691 168.798 7.17339 169.008 7.60635C169.218 8.03931 169.218 8.53131 169.008 9.08235L162.868 27.5028C162.763 27.7915 162.586 28.0276 162.337 28.2113C162.087 28.395 161.792 28.4868 161.451 28.4868C161.11 28.4868 160.802 28.395 160.526 28.2113C160.25 28.0276 160.073 27.7915 159.995 27.5028L155.035 11.0503H155.508L150.548 27.5028C150.443 27.8177 150.26 28.0604 149.997 28.231C149.735 28.4015 149.446 28.4868 149.131 28.4868Z" fill="white"/>
<path d="M193.884 28.6837C191.864 28.6837 190.053 28.2048 188.452 27.247C186.852 26.2893 185.586 24.9838 184.654 23.3307C183.723 21.6776 183.257 19.8145 183.257 17.7416C183.257 15.6424 183.736 13.7662 184.693 12.1131C185.651 10.46 186.957 9.15453 188.61 8.19677C190.263 7.23901 192.126 6.76013 194.199 6.76013C196.272 6.76013 198.128 7.23901 199.768 8.19677C201.408 9.15453 202.707 10.46 203.665 12.1131C204.623 13.7662 205.115 15.6424 205.141 17.7416L203.921 18.6862C203.921 20.5755 203.481 22.2745 202.602 23.7833C201.723 25.2921 200.529 26.4861 199.021 27.3651C197.512 28.2441 195.8 28.6837 193.884 28.6837ZM194.199 25.9285C195.721 25.9285 197.079 25.5742 198.273 24.8657C199.467 24.1573 200.411 23.1798 201.107 21.9334C201.802 20.687 202.15 19.2897 202.15 17.7416C202.15 16.1672 201.802 14.7633 201.107 13.5301C200.411 12.2968 199.467 11.3193 198.273 10.5977C197.079 9.87613 195.721 9.51533 194.199 9.51533C192.703 9.51533 191.352 9.87613 190.145 10.5977C188.938 11.3193 187.98 12.2968 187.272 13.5301C186.563 14.7633 186.209 16.1672 186.209 17.7416C186.209 19.2897 186.563 20.687 187.272 21.9334C187.98 23.1798 188.938 24.1573 190.145 24.8657C191.352 25.5742 192.703 25.9285 194.199 25.9285ZM203.606 28.4869C203.16 28.4869 202.793 28.3491 202.504 28.0736C202.215 27.7981 202.071 27.4373 202.071 26.9912V20.2606L202.819 17.1512L205.141 17.7416V26.9912C205.141 27.4373 204.997 27.7981 204.708 28.0736C204.419 28.3491 204.052 28.4869 203.606 28.4869Z" fill="white"/>
<path d="M232.102 28.4868H231.276C229.885 28.4868 228.645 28.1588 227.556 27.5028C226.467 26.8468 225.608 25.9481 224.978 24.8067C224.349 23.6652 224.034 22.3598 224.034 20.8904V1.64332C224.034 1.19724 224.171 0.829879 224.447 0.541239C224.722 0.252599 225.083 0.108276 225.529 0.108276C225.975 0.108276 226.343 0.252599 226.631 0.541239C226.92 0.829879 227.064 1.19724 227.064 1.64332V20.8904C227.064 22.2286 227.458 23.3241 228.245 24.1769C229.032 25.0297 230.043 25.4561 231.276 25.4561H232.339C232.758 25.4561 233.1 25.6004 233.362 25.8891C233.624 26.1777 233.756 26.5451 233.756 26.9912C233.756 27.4372 233.598 27.798 233.283 28.0736C232.968 28.3491 232.575 28.4868 232.102 28.4868ZM231.512 10.3812H221.475C221.082 10.3812 220.754 10.2566 220.491 10.0073C220.229 9.75804 220.098 9.44972 220.098 9.08236C220.098 8.68876 220.229 8.36732 220.491 8.11804C220.754 7.86876 221.082 7.74412 221.475 7.74412H231.512C231.906 7.74412 232.234 7.86876 232.496 8.11804C232.758 8.36732 232.89 8.68876 232.89 9.08236C232.89 9.44972 232.758 9.75804 232.496 10.0073C232.234 10.2566 231.906 10.3812 231.512 10.3812Z" fill="white"/>
<path d="M260.245 28.6837C258.119 28.6837 256.236 28.2179 254.596 27.2864C252.956 26.3549 251.671 25.0625 250.739 23.4094C249.808 21.7563 249.342 19.867 249.342 17.7416C249.342 15.5899 249.781 13.6941 250.66 12.0541C251.539 10.4141 252.753 9.12173 254.301 8.17709C255.849 7.23245 257.634 6.76013 259.654 6.76013C261.648 6.76013 263.387 7.21277 264.869 8.11805C266.352 9.02333 267.5 10.2763 268.313 11.8769C269.127 13.4776 269.533 15.3013 269.533 17.348C269.533 17.7678 269.402 18.1024 269.14 18.3517C268.877 18.6009 268.536 18.7256 268.117 18.7256H251.389V16.2065H268.431L266.739 17.4267C266.765 15.9048 266.49 14.5403 265.912 13.3333C265.335 12.1262 264.515 11.1816 263.452 10.4993C262.39 9.81709 261.124 9.47597 259.654 9.47597C258.158 9.47597 256.846 9.83021 255.718 10.5387C254.59 11.2472 253.717 12.2246 253.101 13.471C252.484 14.7174 252.176 16.1409 252.176 17.7416C252.176 19.3422 252.523 20.7592 253.219 21.9925C253.914 23.2257 254.865 24.1966 256.072 24.9051C257.279 25.6136 258.67 25.9678 260.245 25.9678C261.189 25.9678 262.14 25.8038 263.098 25.4758C264.056 25.1478 264.823 24.7345 265.401 24.236C265.689 23.9998 266.017 23.8752 266.385 23.8621C266.752 23.8489 267.067 23.9473 267.329 24.1573C267.67 24.4721 267.848 24.8133 267.861 25.1806C267.874 25.548 267.723 25.8629 267.408 26.1253C266.542 26.86 265.44 27.4701 264.102 27.9555C262.764 28.4409 261.478 28.6837 260.245 28.6837Z" fill="white"/>
<path d="M289.449 15.2225H287.718C287.796 13.5956 288.223 12.1393 288.997 10.8535C289.771 9.56774 290.781 8.5575 292.027 7.82278C293.274 7.08806 294.658 6.7207 296.18 6.7207C297.387 6.7207 298.318 6.89126 298.974 7.23238C299.63 7.5735 299.88 8.07206 299.722 8.72806C299.617 9.12166 299.44 9.38406 299.191 9.51526C298.942 9.64646 298.64 9.69894 298.286 9.6727C297.931 9.64646 297.531 9.62023 297.085 9.59399C295.616 9.46279 294.31 9.61366 293.169 10.0466C292.027 10.4796 291.122 11.1421 290.453 12.0343C289.784 12.9265 289.449 13.9892 289.449 15.2225ZM287.954 28.4868C287.481 28.4868 287.114 28.3556 286.852 28.0932C286.589 27.8308 286.458 27.4634 286.458 26.9911V8.45255C286.458 7.98023 286.589 7.61286 286.852 7.35046C287.114 7.08806 287.481 6.95686 287.954 6.95686C288.426 6.95686 288.793 7.08806 289.056 7.35046C289.318 7.61286 289.449 7.98023 289.449 8.45255V26.9911C289.449 27.4634 289.318 27.8308 289.056 28.0932C288.793 28.3556 288.426 28.4868 287.954 28.4868Z" fill="white"/>
<path d="M146.298 75.0546C145.825 75.0546 145.452 74.9169 145.176 74.6414C144.9 74.3658 144.763 73.9919 144.763 73.5196V54.9417C144.789 52.895 145.281 51.0516 146.239 49.4116C147.196 47.7716 148.495 46.4793 150.135 45.5346C151.775 44.59 153.619 44.1177 155.665 44.1177C157.765 44.1177 159.641 44.5966 161.294 45.5543C162.947 46.5121 164.252 47.8175 165.21 49.4706C166.168 51.1238 166.647 52.9999 166.647 55.0991C166.647 57.1721 166.181 59.0351 165.25 60.6882C164.318 62.3414 163.052 63.6468 161.451 64.6046C159.851 65.5623 158.04 66.0412 156.02 66.0412C154.262 66.0412 152.667 65.6673 151.237 64.9194C149.807 64.1716 148.659 63.181 147.793 61.9478V73.5196C147.793 73.9919 147.656 74.3658 147.38 74.6414C147.105 74.9169 146.744 75.0546 146.298 75.0546ZM155.665 63.286C157.187 63.286 158.552 62.9318 159.759 62.2233C160.966 61.5148 161.917 60.5374 162.612 59.291C163.308 58.0446 163.655 56.6473 163.655 55.0991C163.655 53.5247 163.308 52.1209 162.612 50.8876C161.917 49.6543 160.966 48.6769 159.759 47.9553C158.552 47.2337 157.187 46.8729 155.665 46.8729C154.17 46.8729 152.818 47.2337 151.611 47.9553C150.404 48.6769 149.46 49.6543 148.777 50.8876C148.095 52.1209 147.754 53.5247 147.754 55.0991C147.754 56.6473 148.095 58.0446 148.777 59.291C149.46 60.5374 150.404 61.5148 151.611 62.2233C152.818 62.9318 154.17 63.286 155.665 63.286Z" fill="white"/>
<path d="M187.389 52.5801H185.657C185.736 50.9532 186.162 49.4969 186.936 48.2112C187.71 46.9254 188.721 45.9152 189.967 45.1804C191.213 44.4457 192.597 44.0784 194.119 44.0784C195.326 44.0784 196.258 44.2489 196.914 44.59C197.57 44.9312 197.819 45.4297 197.662 46.0857C197.557 46.4793 197.38 46.7417 197.13 46.8729C196.881 47.0041 196.579 47.0566 196.225 47.0304C195.871 47.0041 195.471 46.9779 195.025 46.9516C193.555 46.8204 192.25 46.9713 191.108 47.4043C189.967 47.8372 189.062 48.4998 188.393 49.392C187.723 50.2841 187.389 51.3468 187.389 52.5801ZM185.893 65.8444C185.421 65.8444 185.053 65.7133 184.791 65.4509C184.529 65.1885 184.397 64.8211 184.397 64.3488V45.8102C184.397 45.3379 184.529 44.9705 184.791 44.7081C185.053 44.4457 185.421 44.3145 185.893 44.3145C186.365 44.3145 186.733 44.4457 186.995 44.7081C187.258 44.9705 187.389 45.3379 187.389 45.8102V64.3488C187.389 64.8211 187.258 65.1885 186.995 65.4509C186.733 65.7133 186.365 65.8444 185.893 65.8444Z" fill="white"/>
<path d="M222.459 66.0412C220.359 66.0412 218.483 65.5689 216.83 64.6242C215.177 63.6796 213.878 62.3807 212.934 60.7276C211.989 59.0745 211.517 57.1983 211.517 55.0991C211.517 52.9737 211.989 51.0844 212.934 49.4313C213.878 47.7782 215.177 46.4793 216.83 45.5346C218.483 44.59 220.359 44.1177 222.459 44.1177C224.558 44.1177 226.427 44.59 228.067 45.5346C229.707 46.4793 231 47.7782 231.944 49.4313C232.889 51.0844 233.375 52.9737 233.401 55.0991C233.401 57.1983 232.922 59.0745 231.964 60.7276C231.006 62.3807 229.707 63.6796 228.067 64.6242C226.427 65.5689 224.558 66.0412 222.459 66.0412ZM222.459 63.286C223.981 63.286 225.345 62.9318 226.552 62.2233C227.759 61.5148 228.704 60.5439 229.386 59.3106C230.068 58.0774 230.409 56.6735 230.409 55.0991C230.409 53.5247 230.068 52.1143 229.386 50.8679C228.704 49.6215 227.759 48.6441 226.552 47.9356C225.345 47.2271 223.981 46.8729 222.459 46.8729C220.937 46.8729 219.572 47.2271 218.365 47.9356C217.158 48.6441 216.207 49.6215 215.512 50.8679C214.816 52.1143 214.469 53.5247 214.469 55.0991C214.469 56.6735 214.816 58.0774 215.512 59.3106C216.207 60.5439 217.158 61.5148 218.365 62.2233C219.572 62.9318 220.937 63.286 222.459 63.286Z" fill="white"/>
<path d="M260.914 66.0412C258.815 66.0412 256.938 65.5689 255.285 64.6242C253.632 63.6796 252.333 62.3807 251.389 60.7276C250.444 59.0745 249.972 57.1983 249.972 55.0991C249.972 52.9737 250.444 51.0844 251.389 49.4313C252.333 47.7782 253.632 46.4793 255.285 45.5346C256.938 44.59 258.815 44.1177 260.914 44.1177C263.013 44.1177 264.883 44.59 266.523 45.5346C268.163 46.4793 269.455 47.7782 270.4 49.4313C271.344 51.0844 271.83 52.9737 271.856 55.0991C271.856 57.1983 271.377 59.0745 270.419 60.7276C269.461 62.3807 268.163 63.6796 266.523 64.6242C264.883 65.5689 263.013 66.0412 260.914 66.0412ZM260.914 63.286C262.436 63.286 263.8 62.9318 265.007 62.2233C266.214 61.5148 267.159 60.5439 267.841 59.3106C268.523 58.0774 268.864 56.6735 268.864 55.0991C268.864 53.5247 268.523 52.1143 267.841 50.8679C267.159 49.6215 266.214 48.6441 265.007 47.9356C263.8 47.2271 262.436 46.8729 260.914 46.8729C259.392 46.8729 258.027 47.2271 256.82 47.9356C255.613 48.6441 254.662 49.6215 253.967 50.8679C253.271 52.1143 252.924 53.5247 252.924 55.0991C252.924 56.6735 253.271 58.0774 253.967 59.3106C254.662 60.5439 255.613 61.5148 256.82 62.2233C258.027 62.9318 259.392 63.286 260.914 63.286Z" fill="white"/>
<path d="M292.245 65.8444C291.851 65.8444 291.51 65.7066 291.221 65.4311C290.933 65.1556 290.788 64.7817 290.788 64.3094V44.3538C290.788 42.517 291.103 40.9033 291.733 39.5126C292.363 38.1218 293.294 37.0394 294.527 36.2654C295.761 35.4913 297.27 35.1042 299.054 35.1042C299.5 35.1042 299.867 35.2354 300.156 35.4978C300.445 35.7602 300.589 36.0882 300.589 36.4818C300.589 36.8754 300.445 37.2034 300.156 37.4658C299.867 37.7282 299.5 37.8594 299.054 37.8594C297.873 37.8594 296.896 38.1284 296.122 38.6663C295.347 39.2042 294.77 39.9521 294.39 40.9098C294.009 41.8676 293.819 42.9631 293.819 44.1964V64.3094C293.819 64.7817 293.681 65.1556 293.406 65.4311C293.13 65.7066 292.743 65.8444 292.245 65.8444ZM298.542 47.7388H288.269C287.849 47.7388 287.515 47.6142 287.266 47.3649C287.016 47.1156 286.892 46.8073 286.892 46.4399C286.892 46.0463 287.016 45.7249 287.266 45.4756C287.515 45.2263 287.849 45.1017 288.269 45.1017H298.542C298.962 45.1017 299.297 45.2263 299.546 45.4756C299.795 45.7249 299.92 46.0463 299.92 46.4399C299.92 46.8073 299.795 47.1156 299.546 47.3649C299.297 47.6142 298.962 47.7388 298.542 47.7388Z" fill="white"/>
<path d="M153.421 103.404C151.348 103.404 149.511 102.938 147.911 102.006C146.31 101.075 145.057 99.7826 144.152 98.1295C143.247 96.4764 142.794 94.5871 142.794 92.4617C142.794 90.31 143.266 88.4076 144.211 86.7545C145.156 85.1013 146.454 83.809 148.108 82.8775C149.761 81.946 151.637 81.4802 153.736 81.4802C155.861 81.4802 157.744 81.946 159.384 82.8775C161.024 83.809 162.31 85.1013 163.241 86.7545C164.173 88.4076 164.652 90.31 164.678 92.4617L162.907 93.4063C162.907 95.3481 162.5 97.0733 161.687 98.5821C160.873 100.091 159.752 101.272 158.321 102.125C156.891 102.977 155.258 103.404 153.421 103.404ZM153.815 111.709C151.742 111.709 149.918 111.322 148.344 110.548C146.769 109.774 145.47 108.717 144.447 107.379C144.158 107.064 144.034 106.723 144.073 106.356C144.113 105.988 144.303 105.687 144.644 105.45C144.985 105.214 145.365 105.136 145.785 105.214C146.205 105.293 146.533 105.49 146.769 105.805C147.53 106.749 148.508 107.51 149.702 108.088C150.896 108.665 152.28 108.954 153.854 108.954C155.324 108.954 156.649 108.599 157.829 107.891C159.01 107.182 159.948 106.185 160.644 104.899C161.339 103.614 161.687 102.105 161.687 100.373V94.3903L162.828 92.1074L164.678 92.4617V100.491C164.678 102.617 164.206 104.526 163.261 106.218C162.317 107.91 161.031 109.249 159.404 110.233C157.777 111.217 155.914 111.709 153.815 111.709ZM153.736 100.649C155.284 100.649 156.655 100.301 157.849 99.6055C159.043 98.9101 159.981 97.9458 160.663 96.7125C161.346 95.4793 161.687 94.0623 161.687 92.4617C161.687 90.861 161.346 89.4375 160.663 88.1911C159.981 86.9447 159.043 85.9738 157.849 85.2785C156.655 84.5831 155.284 84.2354 153.736 84.2354C152.188 84.2354 150.81 84.5831 149.603 85.2785C148.396 85.9738 147.452 86.9447 146.769 88.1911C146.087 89.4375 145.746 90.861 145.746 92.4617C145.746 94.0623 146.087 95.4793 146.769 96.7125C147.452 97.9458 148.396 98.9101 149.603 99.6055C150.81 100.301 152.188 100.649 153.736 100.649Z" fill="white"/>
<path d="M191.758 103.443C189.895 103.443 188.229 103.056 186.76 102.282C185.29 101.508 184.129 100.373 183.276 98.8773C182.423 97.3816 181.997 95.558 181.997 93.4063V83.1727C181.997 82.7528 182.141 82.3986 182.43 82.11C182.719 81.8213 183.073 81.677 183.493 81.677C183.939 81.677 184.306 81.8213 184.595 82.11C184.883 82.3986 185.028 82.7528 185.028 83.1727V93.4063C185.028 95.0332 185.336 96.3714 185.953 97.421C186.569 98.4706 187.409 99.2578 188.472 99.7826C189.535 100.307 190.735 100.57 192.073 100.57C193.359 100.57 194.52 100.321 195.557 99.822C196.593 99.3234 197.413 98.6412 198.017 97.7752C198.62 96.9093 198.922 95.9253 198.922 94.8232H201.087C201.008 96.4764 200.555 97.9524 199.729 99.2512C198.902 100.55 197.794 101.573 196.403 102.321C195.012 103.069 193.464 103.443 191.758 103.443ZM200.418 103.207C199.971 103.207 199.611 103.069 199.335 102.794C199.06 102.518 198.922 102.144 198.922 101.672V83.1727C198.922 82.7266 199.06 82.3658 199.335 82.0903C199.611 81.8148 199.971 81.677 200.418 81.677C200.864 81.677 201.231 81.8148 201.52 82.0903C201.808 82.3658 201.953 82.7266 201.953 83.1727V101.672C201.953 102.144 201.808 102.518 201.52 102.794C201.231 103.069 200.864 103.207 200.418 103.207Z" fill="white"/>
<path d="M249.932 103.207C249.486 103.207 249.118 103.069 248.83 102.794C248.541 102.518 248.397 102.157 248.397 101.711V90.3755C248.397 88.5125 247.911 87.0365 246.94 85.9475C245.97 84.8586 244.723 84.3141 243.201 84.3141C241.574 84.3141 240.243 84.8586 239.206 85.9475C238.17 87.0365 237.665 88.4862 237.691 90.2968H234.975C235.001 88.5387 235.382 86.9906 236.116 85.6523C236.851 84.3141 237.861 83.2776 239.147 82.5429C240.433 81.8082 241.889 81.4408 243.516 81.4408C245.064 81.4408 246.435 81.8082 247.629 82.5429C248.823 83.2776 249.755 84.3141 250.424 85.6523C251.093 86.9906 251.427 88.565 251.427 90.3755V101.711C251.427 102.157 251.29 102.518 251.014 102.794C250.739 103.069 250.378 103.207 249.932 103.207ZM222.38 103.207C221.907 103.207 221.534 103.069 221.258 102.794C220.982 102.518 220.845 102.157 220.845 101.711V83.212C220.845 82.7659 220.982 82.3986 221.258 82.1099C221.534 81.8213 221.907 81.677 222.38 81.677C222.826 81.677 223.187 81.8213 223.462 82.1099C223.738 82.3986 223.875 82.7659 223.875 83.212V101.711C223.875 102.157 223.738 102.518 223.462 102.794C223.187 103.069 222.826 103.207 222.38 103.207ZM236.195 103.207C235.749 103.207 235.382 103.069 235.093 102.794C234.804 102.518 234.66 102.157 234.66 101.711V90.3755C234.66 88.5125 234.175 87.0365 233.204 85.9475C232.233 84.8586 230.986 84.3141 229.465 84.3141C227.838 84.3141 226.499 84.8454 225.45 85.9082C224.4 86.9709 223.875 88.355 223.875 90.0606H221.711C221.763 88.3813 222.137 86.8922 222.832 85.5933C223.528 84.2944 224.479 83.2776 225.686 82.5429C226.893 81.8082 228.258 81.4408 229.779 81.4408C231.328 81.4408 232.699 81.8082 233.893 82.5429C235.086 83.2776 236.018 84.3141 236.687 85.6523C237.356 86.9906 237.691 88.565 237.691 90.3755V101.711C237.691 102.157 237.553 102.518 237.278 102.794C237.002 103.069 236.641 103.207 236.195 103.207Z" fill="white"/>
<path d="M114.014 65.8918C114.128 69.5854 113.307 76.2886 112.281 79.8226C107.174 106.042 82.3679 134.155 57.0144 142.5C31.6609 134.155 6.85458 106.042 1.74739 79.8226C0.721398 76.2886 -0.1222 69.5854 0.0145995 65.8918V0H114.014V65.8918Z" fill="white"/>
<path d="M73.3417 75.0748C73.3417 84.0927 66.0301 91.4034 57.0131 91.4034C47.9952 91.4034 40.6846 84.0927 40.6846 75.0748C40.6846 58.7463 57.0131 34.2534 57.0131 34.2534C57.0131 34.2534 73.3417 58.7463 73.3417 75.0748Z" fill="#1B1B1B"/>
<path d="M114.014 65.8918C114.128 69.5854 113.307 76.2886 112.281 79.8226C107.174 106.042 82.3679 134.155 57.0144 142.5C31.6609 134.155 6.85458 106.042 1.74739 79.8226C0.721398 76.2886 -0.1222 69.5854 0.0145995 65.8918V0H114.014V65.8918Z" fill="white"/>
<path d="M73.3417 75.0748C73.3417 84.0927 66.0301 91.4034 57.0131 91.4034C47.9952 91.4034 40.6846 84.0927 40.6846 75.0748C40.6846 58.7463 57.0131 34.2534 57.0131 34.2534C57.0131 34.2534 73.3417 58.7463 73.3417 75.0748Z" fill="#1B1B1B"/>
</svg>
