<svg width="307" height="145" viewBox="0 0 307 145" fill="none" xmlns="http://www.w3.org/2000/svg">
<path d="M152.482 29.1C152.135 29.1 151.829 29.0067 151.562 28.82C151.295 28.6334 151.109 28.3934 151.002 28.1L144.762 9.38003C144.602 8.71336 144.615 8.1867 144.802 7.80003C144.989 7.41336 145.362 7.22003 145.922 7.22003C146.269 7.22003 146.575 7.31336 146.842 7.50003C147.109 7.6867 147.309 7.98003 147.442 8.38003L153.002 25.38H152.122L157.282 8.42003C157.389 8.07336 157.569 7.7867 157.822 7.56003C158.075 7.33337 158.402 7.22003 158.802 7.22003C159.202 7.22003 159.529 7.3267 159.782 7.54003C160.035 7.75336 160.215 8.0467 160.322 8.42003L165.242 24.98H164.562L170.002 8.38003C170.269 7.6067 170.762 7.22003 171.482 7.22003C172.069 7.22003 172.469 7.44003 172.682 7.88003C172.895 8.32003 172.895 8.82003 172.682 9.38003L166.442 28.1C166.335 28.3934 166.155 28.6334 165.902 28.82C165.649 29.0067 165.349 29.1 165.002 29.1C164.655 29.1 164.342 29.0067 164.062 28.82C163.782 28.6334 163.602 28.3934 163.522 28.1L158.482 11.38H158.962L153.922 28.1C153.815 28.42 153.629 28.6667 153.362 28.84C153.095 29.0134 152.802 29.1 152.482 29.1Z" fill="#2A2A2A"/>
<path d="M197.962 29.3C195.909 29.3 194.069 28.8134 192.442 27.84C190.815 26.8667 189.529 25.54 188.582 23.86C187.635 22.18 187.162 20.2867 187.162 18.18C187.162 16.0467 187.649 14.14 188.622 12.46C189.595 10.78 190.922 9.45335 192.602 8.48002C194.282 7.50669 196.175 7.02002 198.282 7.02002C200.389 7.02002 202.275 7.50669 203.942 8.48002C205.609 9.45335 206.929 10.78 207.902 12.46C208.875 14.14 209.375 16.0467 209.402 18.18L208.162 19.14C208.162 21.06 207.715 22.7867 206.822 24.32C205.929 25.8534 204.715 27.0667 203.182 27.96C201.649 28.8534 199.909 29.3 197.962 29.3ZM198.282 26.5C199.829 26.5 201.209 26.14 202.422 25.42C203.635 24.7 204.595 23.7067 205.302 22.44C206.009 21.1734 206.362 19.7534 206.362 18.18C206.362 16.58 206.009 15.1534 205.302 13.9C204.595 12.6467 203.635 11.6534 202.422 10.92C201.209 10.1867 199.829 9.82002 198.282 9.82002C196.762 9.82002 195.389 10.1867 194.162 10.92C192.935 11.6534 191.962 12.6467 191.242 13.9C190.522 15.1534 190.162 16.58 190.162 18.18C190.162 19.7534 190.522 21.1734 191.242 22.44C191.962 23.7067 192.935 24.7 194.162 25.42C195.389 26.14 196.762 26.5 198.282 26.5ZM207.842 29.1C207.389 29.1 207.015 28.96 206.722 28.68C206.429 28.4 206.282 28.0334 206.282 27.58V20.74L207.042 17.58L209.402 18.18V27.58C209.402 28.0334 209.255 28.4 208.962 28.68C208.669 28.96 208.295 29.1 207.842 29.1Z" fill="#2A2A2A"/>
<path d="M236.803 29.1H235.963C234.549 29.1 233.289 28.7667 232.183 28.1C231.076 27.4333 230.203 26.52 229.563 25.36C228.923 24.2 228.603 22.8733 228.603 21.38V1.82001C228.603 1.36668 228.743 0.993346 229.023 0.700012C229.303 0.406679 229.669 0.26001 230.123 0.26001C230.576 0.26001 230.949 0.406679 231.243 0.700012C231.536 0.993346 231.683 1.36668 231.683 1.82001V21.38C231.683 22.74 232.083 23.8533 232.883 24.72C233.683 25.5867 234.709 26.02 235.963 26.02H237.043C237.469 26.02 237.816 26.1667 238.083 26.46C238.349 26.7533 238.483 27.1267 238.483 27.58C238.483 28.0333 238.323 28.4 238.003 28.68C237.683 28.96 237.283 29.1 236.803 29.1ZM236.203 10.7H226.003C225.603 10.7 225.269 10.5733 225.003 10.32C224.736 10.0667 224.603 9.75335 224.603 9.38001C224.603 8.98001 224.736 8.65335 225.003 8.40001C225.269 8.14668 225.603 8.02001 226.003 8.02001H236.203C236.603 8.02001 236.936 8.14668 237.203 8.40001C237.469 8.65335 237.603 8.98001 237.603 9.38001C237.603 9.75335 237.469 10.0667 237.203 10.32C236.936 10.5733 236.603 10.7 236.203 10.7Z" fill="#2A2A2A"/>
<path d="M265.402 29.3C263.242 29.3 261.329 28.8267 259.662 27.88C257.996 26.9334 256.689 25.62 255.742 23.94C254.796 22.26 254.322 20.34 254.322 18.18C254.322 15.9934 254.769 14.0667 255.662 12.4C256.556 10.7334 257.789 9.42002 259.362 8.46002C260.936 7.50002 262.749 7.02002 264.802 7.02002C266.829 7.02002 268.596 7.48002 270.102 8.40002C271.609 9.32002 272.776 10.5934 273.602 12.22C274.429 13.8467 274.842 15.7 274.842 17.78C274.842 18.2067 274.709 18.5467 274.442 18.8C274.176 19.0534 273.829 19.18 273.402 19.18H256.402V16.62H273.722L272.002 17.86C272.029 16.3134 271.749 14.9267 271.162 13.7C270.576 12.4734 269.742 11.5134 268.662 10.82C267.582 10.1267 266.296 9.78002 264.802 9.78002C263.282 9.78002 261.949 10.14 260.802 10.86C259.656 11.58 258.769 12.5734 258.142 13.84C257.516 15.1067 257.202 16.5534 257.202 18.18C257.202 19.8067 257.556 21.2467 258.262 22.5C258.969 23.7534 259.936 24.74 261.162 25.46C262.389 26.18 263.802 26.54 265.402 26.54C266.362 26.54 267.329 26.3734 268.302 26.04C269.276 25.7067 270.056 25.2867 270.642 24.78C270.936 24.54 271.269 24.4134 271.642 24.4C272.016 24.3867 272.336 24.4867 272.602 24.7C272.949 25.02 273.129 25.3667 273.142 25.74C273.156 26.1134 273.002 26.4334 272.682 26.7C271.802 27.4467 270.682 28.0667 269.322 28.56C267.962 29.0534 266.656 29.3 265.402 29.3Z" fill="#2A2A2A"/>
<path d="M295.082 15.62H293.322C293.402 13.9666 293.835 12.4866 294.622 11.18C295.409 9.87331 296.435 8.84665 297.702 8.09998C298.969 7.35331 300.375 6.97998 301.922 6.97998C303.149 6.97998 304.095 7.15331 304.762 7.49998C305.429 7.84665 305.682 8.35331 305.522 9.01998C305.415 9.41998 305.235 9.68665 304.982 9.81998C304.729 9.95331 304.422 10.0066 304.062 9.97998C303.702 9.95331 303.295 9.92665 302.842 9.89998C301.349 9.76665 300.022 9.91998 298.862 10.36C297.702 10.8 296.782 11.4733 296.102 12.38C295.422 13.2866 295.082 14.3666 295.082 15.62ZM293.562 29.1C293.082 29.1 292.709 28.9666 292.442 28.7C292.175 28.4333 292.042 28.06 292.042 27.58V8.73998C292.042 8.25998 292.175 7.88665 292.442 7.61998C292.709 7.35331 293.082 7.21998 293.562 7.21998C294.042 7.21998 294.415 7.35331 294.682 7.61998C294.949 7.88665 295.082 8.25998 295.082 8.73998V27.58C295.082 28.06 294.949 28.4333 294.682 28.7C294.415 28.9666 294.042 29.1 293.562 29.1Z" fill="#2A2A2A"/>
<path d="M149.602 76.425C149.122 76.425 148.742 76.285 148.462 76.005C148.182 75.725 148.042 75.345 148.042 74.865V55.985C148.069 53.905 148.569 52.0317 149.542 50.365C150.515 48.6983 151.835 47.385 153.502 46.425C155.169 45.465 157.042 44.985 159.122 44.985C161.255 44.985 163.162 45.4717 164.842 46.445C166.522 47.4183 167.849 48.745 168.822 50.425C169.795 52.105 170.282 54.0117 170.282 56.145C170.282 58.2517 169.809 60.145 168.862 61.825C167.915 63.505 166.629 64.8317 165.002 65.805C163.375 66.7783 161.535 67.265 159.482 67.265C157.695 67.265 156.075 66.885 154.622 66.125C153.169 65.365 152.002 64.3583 151.122 63.105V74.865C151.122 75.345 150.982 75.725 150.702 76.005C150.422 76.285 150.055 76.425 149.602 76.425ZM159.122 64.465C160.669 64.465 162.055 64.105 163.282 63.385C164.509 62.665 165.475 61.6717 166.182 60.405C166.889 59.1383 167.242 57.7183 167.242 56.145C167.242 54.545 166.889 53.1183 166.182 51.865C165.475 50.6117 164.509 49.6183 163.282 48.885C162.055 48.1517 160.669 47.785 159.122 47.785C157.602 47.785 156.229 48.1517 155.002 48.885C153.775 49.6183 152.815 50.6117 152.122 51.865C151.429 53.1183 151.082 54.545 151.082 56.145C151.082 57.7183 151.429 59.1383 152.122 60.405C152.815 61.6717 153.775 62.665 155.002 63.385C156.229 64.105 157.602 64.465 159.122 64.465Z" fill="#2A2A2A"/>
<path d="M191.362 53.585H189.602C189.682 51.9317 190.116 50.4517 190.902 49.145C191.689 47.8383 192.716 46.8117 193.982 46.065C195.249 45.3183 196.656 44.945 198.202 44.945C199.429 44.945 200.376 45.1183 201.042 45.465C201.709 45.8117 201.962 46.3183 201.802 46.985C201.696 47.385 201.516 47.6517 201.262 47.785C201.009 47.9183 200.702 47.9717 200.342 47.945C199.982 47.9183 199.576 47.8917 199.122 47.865C197.629 47.7317 196.302 47.885 195.142 48.325C193.982 48.765 193.062 49.4383 192.382 50.345C191.702 51.2517 191.362 52.3317 191.362 53.585ZM189.842 67.065C189.362 67.065 188.989 66.9317 188.722 66.665C188.456 66.3983 188.322 66.025 188.322 65.545V46.705C188.322 46.225 188.456 45.8517 188.722 45.585C188.989 45.3183 189.362 45.185 189.842 45.185C190.322 45.185 190.696 45.3183 190.962 45.585C191.229 45.8517 191.362 46.225 191.362 46.705V65.545C191.362 66.025 191.229 66.3983 190.962 66.665C190.696 66.9317 190.322 67.065 189.842 67.065Z" fill="#2A2A2A"/>
<path d="M227.002 67.265C224.869 67.265 222.962 66.785 221.282 65.825C219.602 64.865 218.282 63.545 217.322 61.865C216.362 60.185 215.882 58.2783 215.882 56.145C215.882 53.985 216.362 52.065 217.322 50.385C218.282 48.705 219.602 47.385 221.282 46.425C222.962 45.465 224.869 44.985 227.002 44.985C229.135 44.985 231.035 45.465 232.702 46.425C234.369 47.385 235.682 48.705 236.642 50.385C237.602 52.065 238.095 53.985 238.122 56.145C238.122 58.2783 237.635 60.185 236.662 61.865C235.689 63.545 234.369 64.865 232.702 65.825C231.035 66.785 229.135 67.265 227.002 67.265ZM227.002 64.465C228.549 64.465 229.935 64.105 231.162 63.385C232.389 62.665 233.349 61.6783 234.042 60.425C234.735 59.1717 235.082 57.745 235.082 56.145C235.082 54.545 234.735 53.1117 234.042 51.845C233.349 50.5783 232.389 49.585 231.162 48.865C229.935 48.145 228.549 47.785 227.002 47.785C225.455 47.785 224.069 48.145 222.842 48.865C221.615 49.585 220.649 50.5783 219.942 51.845C219.235 53.1117 218.882 54.545 218.882 56.145C218.882 57.745 219.235 59.1717 219.942 60.425C220.649 61.6783 221.615 62.665 222.842 63.385C224.069 64.105 225.455 64.465 227.002 64.465Z" fill="#2A2A2A"/>
<path d="M266.082 67.265C263.949 67.265 262.042 66.785 260.362 65.825C258.682 64.865 257.362 63.545 256.402 61.865C255.442 60.185 254.962 58.2783 254.962 56.145C254.962 53.985 255.442 52.065 256.402 50.385C257.362 48.705 258.682 47.385 260.362 46.425C262.042 45.465 263.949 44.985 266.082 44.985C268.215 44.985 270.115 45.465 271.782 46.425C273.449 47.385 274.762 48.705 275.722 50.385C276.682 52.065 277.175 53.985 277.202 56.145C277.202 58.2783 276.715 60.185 275.742 61.865C274.769 63.545 273.449 64.865 271.782 65.825C270.115 66.785 268.215 67.265 266.082 67.265ZM266.082 64.465C267.629 64.465 269.015 64.105 270.242 63.385C271.469 62.665 272.429 61.6783 273.122 60.425C273.815 59.1717 274.162 57.745 274.162 56.145C274.162 54.545 273.815 53.1117 273.122 51.845C272.429 50.5783 271.469 49.585 270.242 48.865C269.015 48.145 267.629 47.785 266.082 47.785C264.535 47.785 263.149 48.145 261.922 48.865C260.695 49.585 259.729 50.5783 259.022 51.845C258.315 53.1117 257.962 54.545 257.962 56.145C257.962 57.745 258.315 59.1717 259.022 60.425C259.729 61.6783 260.695 62.665 261.922 63.385C263.149 64.105 264.535 64.465 266.082 64.465Z" fill="#2A2A2A"/>
<path d="M297.922 67.065C297.522 67.065 297.176 66.925 296.882 66.645C296.589 66.365 296.442 65.985 296.442 65.505V45.225C296.442 43.3583 296.762 41.7183 297.402 40.305C298.042 38.8917 298.989 37.7917 300.242 37.005C301.496 36.2183 303.029 35.825 304.842 35.825C305.296 35.825 305.669 35.9583 305.962 36.225C306.256 36.4917 306.402 36.825 306.402 37.225C306.402 37.625 306.256 37.9583 305.962 38.225C305.669 38.4917 305.296 38.625 304.842 38.625C303.642 38.625 302.649 38.8983 301.862 39.445C301.076 39.9917 300.489 40.7517 300.102 41.725C299.716 42.6983 299.522 43.8117 299.522 45.065V65.505C299.522 65.985 299.382 66.365 299.102 66.645C298.822 66.925 298.429 67.065 297.922 67.065ZM304.322 48.665H293.882C293.456 48.665 293.116 48.5383 292.862 48.285C292.609 48.0317 292.482 47.7183 292.482 47.345C292.482 46.945 292.609 46.6183 292.862 46.365C293.116 46.1117 293.456 45.985 293.882 45.985H304.322C304.749 45.985 305.089 46.1117 305.342 46.365C305.596 46.6183 305.722 46.945 305.722 47.345C305.722 47.7183 305.596 48.0317 305.342 48.285C305.089 48.5383 304.749 48.665 304.322 48.665Z" fill="#2A2A2A"/>
<path d="M156.842 105.235C154.735 105.235 152.869 104.762 151.242 103.815C149.615 102.868 148.342 101.555 147.422 99.875C146.502 98.195 146.042 96.275 146.042 94.115C146.042 91.9284 146.522 89.995 147.482 88.315C148.442 86.635 149.762 85.3217 151.442 84.375C153.122 83.4284 155.029 82.955 157.162 82.955C159.322 82.955 161.235 83.4284 162.902 84.375C164.569 85.3217 165.875 86.635 166.822 88.315C167.769 89.995 168.255 91.9284 168.282 94.115L166.482 95.075C166.482 97.0484 166.069 98.8017 165.242 100.335C164.415 101.868 163.275 103.068 161.822 103.935C160.369 104.802 158.709 105.235 156.842 105.235ZM157.242 113.675C155.135 113.675 153.282 113.282 151.682 112.495C150.082 111.708 148.762 110.635 147.722 109.275C147.429 108.955 147.302 108.608 147.342 108.235C147.382 107.862 147.575 107.555 147.922 107.315C148.269 107.075 148.655 106.995 149.082 107.075C149.509 107.155 149.842 107.355 150.082 107.675C150.855 108.635 151.849 109.408 153.062 109.995C154.275 110.582 155.682 110.875 157.282 110.875C158.775 110.875 160.122 110.515 161.322 109.795C162.522 109.075 163.475 108.062 164.182 106.755C164.889 105.448 165.242 103.915 165.242 102.155V96.075L166.402 93.755L168.282 94.115V102.275C168.282 104.435 167.802 106.375 166.842 108.095C165.882 109.815 164.575 111.175 162.922 112.175C161.269 113.175 159.375 113.675 157.242 113.675ZM157.162 102.435C158.735 102.435 160.129 102.082 161.342 101.375C162.555 100.668 163.509 99.6884 164.202 98.435C164.895 97.1817 165.242 95.7417 165.242 94.115C165.242 92.4884 164.895 91.0417 164.202 89.775C163.509 88.5084 162.555 87.5217 161.342 86.815C160.129 86.1083 158.735 85.755 157.162 85.755C155.589 85.755 154.189 86.1083 152.962 86.815C151.735 87.5217 150.775 88.5084 150.082 89.775C149.389 91.0417 149.042 92.4884 149.042 94.115C149.042 95.7417 149.389 97.1817 150.082 98.435C150.775 99.6884 151.735 100.668 152.962 101.375C154.189 102.082 155.589 102.435 157.162 102.435Z" fill="#2A2A2A"/>
<path d="M195.802 105.275C193.909 105.275 192.215 104.882 190.722 104.095C189.229 103.308 188.049 102.155 187.182 100.635C186.315 99.115 185.882 97.2617 185.882 95.075V84.675C185.882 84.2484 186.029 83.8884 186.322 83.595C186.615 83.3017 186.975 83.155 187.402 83.155C187.855 83.155 188.229 83.3017 188.522 83.595C188.815 83.8884 188.962 84.2484 188.962 84.675V95.075C188.962 96.7284 189.275 98.0884 189.902 99.155C190.529 100.222 191.382 101.022 192.462 101.555C193.542 102.088 194.762 102.355 196.122 102.355C197.429 102.355 198.609 102.102 199.662 101.595C200.715 101.088 201.549 100.395 202.162 99.515C202.775 98.635 203.082 97.635 203.082 96.515H205.282C205.202 98.195 204.742 99.695 203.902 101.015C203.062 102.335 201.935 103.375 200.522 104.135C199.109 104.895 197.535 105.275 195.802 105.275ZM204.602 105.035C204.149 105.035 203.782 104.895 203.502 104.615C203.222 104.335 203.082 103.955 203.082 103.475V84.675C203.082 84.2217 203.222 83.855 203.502 83.575C203.782 83.295 204.149 83.155 204.602 83.155C205.055 83.155 205.429 83.295 205.722 83.575C206.015 83.855 206.162 84.2217 206.162 84.675V103.475C206.162 103.955 206.015 104.335 205.722 104.615C205.429 104.895 205.055 105.035 204.602 105.035Z" fill="#2A2A2A"/>
<path d="M254.922 105.035C254.469 105.035 254.096 104.895 253.802 104.615C253.509 104.335 253.362 103.968 253.362 103.515V91.995C253.362 90.1017 252.869 88.6017 251.882 87.495C250.896 86.3884 249.629 85.835 248.082 85.835C246.429 85.835 245.076 86.3884 244.022 87.495C242.969 88.6017 242.456 90.075 242.482 91.915H239.722C239.749 90.1284 240.136 88.555 240.882 87.195C241.629 85.835 242.656 84.7817 243.962 84.035C245.269 83.2884 246.749 82.915 248.402 82.915C249.976 82.915 251.369 83.2884 252.582 84.035C253.796 84.7817 254.742 85.835 255.422 87.195C256.102 88.555 256.442 90.155 256.442 91.995V103.515C256.442 103.968 256.302 104.335 256.022 104.615C255.742 104.895 255.376 105.035 254.922 105.035ZM226.922 105.035C226.442 105.035 226.062 104.895 225.782 104.615C225.502 104.335 225.362 103.968 225.362 103.515V84.715C225.362 84.2617 225.502 83.8884 225.782 83.595C226.062 83.3017 226.442 83.155 226.922 83.155C227.376 83.155 227.742 83.3017 228.022 83.595C228.302 83.8884 228.442 84.2617 228.442 84.715V103.515C228.442 103.968 228.302 104.335 228.022 104.615C227.742 104.895 227.376 105.035 226.922 105.035ZM240.962 105.035C240.509 105.035 240.136 104.895 239.842 104.615C239.549 104.335 239.402 103.968 239.402 103.515V91.995C239.402 90.1017 238.909 88.6017 237.922 87.495C236.936 86.3884 235.669 85.835 234.122 85.835C232.469 85.835 231.109 86.375 230.042 87.455C228.976 88.535 228.442 89.9417 228.442 91.675H226.242C226.296 89.9684 226.676 88.455 227.382 87.135C228.089 85.815 229.056 84.7817 230.282 84.035C231.509 83.2884 232.896 82.915 234.442 82.915C236.016 82.915 237.409 83.2884 238.622 84.035C239.836 84.7817 240.782 85.835 241.462 87.195C242.142 88.555 242.482 90.155 242.482 91.995V103.515C242.482 103.968 242.342 104.335 242.062 104.615C241.782 104.895 241.416 105.035 240.962 105.035Z" fill="#2A2A2A"/>
<path d="M116.795 67.1132C116.911 70.8669 116.077 77.679 115.034 81.2705C109.844 107.917 84.634 136.486 58.8682 144.967C33.1025 136.486 7.89279 107.917 2.70257 81.2705C1.65989 77.679 0.802571 70.8669 0.941595 67.1132V0.150024H116.795V67.1132Z" fill="#2A2A2A"/>
<path d="M75.4606 76.4456C75.4606 85.6101 68.0302 93.0396 58.8665 93.0396C49.702 93.0396 42.2725 85.6101 42.2725 76.4456C42.2725 59.8515 58.8665 34.9604 58.8665 34.9604C58.8665 34.9604 75.4606 59.8515 75.4606 76.4456Z" fill="white"/>
</svg>
