<?xml version="1.0" encoding="UTF-8" standalone="no" ?>
<!DOCTYPE svg PUBLIC "-//W3C//DTD SVG 1.1//EN" "http://www.w3.org/Graphics/SVG/1.1/DTD/svg11.dtd">
<svg xmlns="http://www.w3.org/2000/svg" xmlns:xlink="http://www.w3.org/1999/xlink" version="1.1" width="500" height="500" viewBox="0 0 500 500" xml:space="preserve">
<desc>Created with Fabric.js 3.6.3</desc>
<defs>
</defs>
<g transform="matrix(0.5 0 0 0.5 315.3422981548308 233.50000000000003)" style=""  ><path fill="#2A2A2A" opacity="1" d="M-145.72-50.80L-145.72-50.80Q-146.76-50.80-147.56-51.36Q-148.36-51.92-148.68-52.80L-148.68-52.80L-161.16-90.24Q-161.64-92.24-161.08-93.40Q-160.52-94.56-158.84-94.56L-158.84-94.56Q-157.80-94.56-157.00-94.00Q-156.20-93.44-155.80-92.24L-155.80-92.24L-144.68-58.24L-146.44-58.24L-136.12-92.16Q-135.80-93.20-135.04-93.88Q-134.28-94.56-133.08-94.56L-133.08-94.56Q-131.88-94.56-131.12-93.92Q-130.36-93.28-130.04-92.16L-130.04-92.16L-120.20-59.04L-121.56-59.04L-110.68-92.24Q-109.88-94.56-107.72-94.56L-107.72-94.56Q-105.96-94.56-105.32-93.24Q-104.68-91.92-105.32-90.24L-105.32-90.24L-117.80-52.80Q-118.12-51.92-118.88-51.36Q-119.64-50.80-120.68-50.80L-120.68-50.80Q-121.72-50.80-122.56-51.36Q-123.40-51.92-123.64-52.80L-123.64-52.80L-133.72-86.24L-132.76-86.24L-142.84-52.80Q-143.16-51.84-143.96-51.32Q-144.76-50.80-145.72-50.80Z"/><path fill="#2A2A2A" opacity="1" d="M-54.76-50.40L-54.76-50.40Q-60.92-50.40-65.80-53.32Q-70.68-56.24-73.52-61.28Q-76.36-66.32-76.36-72.64L-76.36-72.64Q-76.36-79.04-73.44-84.08Q-70.52-89.12-65.48-92.04Q-60.44-94.96-54.12-94.96L-54.12-94.96Q-47.80-94.96-42.80-92.04Q-37.80-89.12-34.88-84.08Q-31.96-79.04-31.88-72.64L-31.88-72.64L-34.36-70.72Q-34.36-64.96-37.04-60.36Q-39.72-55.76-44.32-53.08Q-48.92-50.40-54.76-50.40ZM-54.12-56.00L-54.12-56.00Q-49.48-56.00-45.84-58.16Q-42.20-60.32-40.08-64.12Q-37.96-67.92-37.96-72.64L-37.96-72.64Q-37.96-77.44-40.08-81.20Q-42.20-84.96-45.84-87.16Q-49.48-89.36-54.12-89.36L-54.12-89.36Q-58.68-89.36-62.36-87.16Q-66.04-84.96-68.20-81.20Q-70.36-77.44-70.36-72.64L-70.36-72.64Q-70.36-67.92-68.20-64.12Q-66.04-60.32-62.36-58.16Q-58.68-56.00-54.12-56.00ZM-35.00-50.80L-35.00-50.80Q-36.36-50.80-37.24-51.64Q-38.12-52.48-38.12-53.84L-38.12-53.84L-38.12-67.52L-36.60-73.84L-31.88-72.64L-31.88-53.84Q-31.88-52.48-32.76-51.64Q-33.64-50.80-35.00-50.80Z"/><path fill="#2A2A2A" opacity="1" d="M22.92-50.80L21.24-50.80Q17.00-50.80 13.68-52.80Q10.36-54.80 8.44-58.28Q6.52-61.76 6.52-66.24L6.52-66.24L6.52-105.36Q6.52-106.72 7.36-107.60Q8.20-108.48 9.56-108.48L9.56-108.48Q10.92-108.48 11.80-107.60Q12.68-106.72 12.68-105.36L12.68-105.36L12.68-66.24Q12.68-62.16 15.08-59.56Q17.48-56.96 21.24-56.96L21.24-56.96L23.40-56.96Q24.68-56.96 25.48-56.08Q26.28-55.20 26.28-53.84L26.28-53.84Q26.28-52.48 25.32-51.64Q24.36-50.80 22.92-50.80L22.92-50.80ZM21.72-87.60L1.32-87.60Q0.12-87.60-0.68-88.36Q-1.48-89.12-1.48-90.24L-1.48-90.24Q-1.48-91.44-0.68-92.20Q0.12-92.96 1.32-92.96L1.32-92.96L21.72-92.96Q22.92-92.96 23.72-92.20Q24.52-91.44 24.52-90.24L24.52-90.24Q24.52-89.12 23.72-88.36Q22.92-87.60 21.72-87.60L21.72-87.60Z"/><path fill="#2A2A2A" opacity="1" d="M80.12-50.40L80.12-50.40Q73.64-50.40 68.64-53.24Q63.64-56.08 60.80-61.12Q57.96-66.16 57.96-72.64L57.96-72.64Q57.96-79.20 60.64-84.20Q63.32-89.20 68.04-92.08Q72.76-94.96 78.92-94.96L78.92-94.96Q85.00-94.96 89.52-92.20Q94.04-89.44 96.52-84.56Q99.00-79.68 99.00-73.44L99.00-73.44Q99.00-72.16 98.20-71.40Q97.40-70.64 96.12-70.64L96.12-70.64L62.12-70.64L62.12-75.76L96.76-75.76L93.32-73.28Q93.40-77.92 91.64-81.60Q89.88-85.28 86.64-87.36Q83.40-89.44 78.92-89.44L78.92-89.44Q74.36-89.44 70.92-87.28Q67.48-85.12 65.60-81.32Q63.72-77.52 63.72-72.64L63.72-72.64Q63.72-67.76 65.84-64.00Q67.96-60.24 71.64-58.08Q75.32-55.92 80.12-55.92L80.12-55.92Q83.00-55.92 85.92-56.92Q88.84-57.92 90.60-59.44L90.60-59.44Q91.48-60.16 92.60-60.20Q93.72-60.24 94.52-59.60L94.52-59.60Q95.56-58.64 95.60-57.52Q95.64-56.40 94.68-55.60L94.68-55.60Q92.04-53.36 87.96-51.88Q83.88-50.40 80.12-50.40Z"/><path fill="#2A2A2A" opacity="1" d="M139.48-77.76L135.96-77.76Q136.20-82.72 138.56-86.64Q140.92-90.56 144.72-92.80Q148.52-95.04 153.16-95.04L153.16-95.04Q156.84-95.04 158.84-94.00Q160.84-92.96 160.36-90.96L160.36-90.96Q160.04-89.76 159.28-89.36Q158.52-88.96 157.44-89.04Q156.36-89.12 155.00-89.20L155.00-89.20Q150.52-89.60 147.04-88.28Q143.56-86.96 141.52-84.24Q139.48-81.52 139.48-77.76L139.48-77.76ZM136.44-50.80L136.44-50.80Q135.00-50.80 134.20-51.60Q133.40-52.40 133.40-53.84L133.40-53.84L133.40-91.52Q133.40-92.96 134.20-93.76Q135.00-94.56 136.44-94.56L136.44-94.56Q137.88-94.56 138.68-93.76Q139.48-92.96 139.48-91.52L139.48-91.52L139.48-53.84Q139.48-52.40 138.68-51.60Q137.88-50.80 136.44-50.80Z"/><path fill="#2A2A2A" opacity="1" d="M-151.48 43.85L-151.48 43.85Q-152.92 43.85-153.76 43.01Q-154.60 42.17-154.60 40.73L-154.60 40.73L-154.60 2.97Q-154.52-3.27-151.60-8.27Q-148.68-13.27-143.68-16.15Q-138.68-19.03-132.44-19.03L-132.44-19.03Q-126.04-19.03-121.00-16.11Q-115.96-13.19-113.04-8.15Q-110.12-3.11-110.12 3.29L-110.12 3.29Q-110.12 9.61-112.96 14.65Q-115.80 19.69-120.68 22.61Q-125.56 25.53-131.72 25.53L-131.72 25.53Q-137.08 25.53-141.44 23.25Q-145.80 20.97-148.44 17.21L-148.44 17.21L-148.44 40.73Q-148.44 42.17-149.28 43.01Q-150.12 43.85-151.48 43.85ZM-132.44 19.93L-132.44 19.93Q-127.80 19.93-124.12 17.77Q-120.44 15.61-118.32 11.81Q-116.20 8.01-116.20 3.29L-116.20 3.29Q-116.20-1.51-118.32-5.27Q-120.44-9.03-124.12-11.23Q-127.80-13.43-132.44-13.43L-132.44-13.43Q-137.00-13.43-140.68-11.23Q-144.36-9.03-146.44-5.27Q-148.52-1.51-148.52 3.29L-148.52 3.29Q-148.52 8.01-146.44 11.81Q-144.36 15.61-140.68 17.77Q-137.00 19.93-132.44 19.93Z"/><path fill="#2A2A2A" opacity="1" d="M-67.96-1.83L-71.48-1.83Q-71.24-6.79-68.88-10.71Q-66.52-14.63-62.72-16.87Q-58.92-19.11-54.28-19.11L-54.28-19.11Q-50.60-19.11-48.60-18.07Q-46.60-17.03-47.08-15.03L-47.08-15.03Q-47.40-13.83-48.16-13.43Q-48.92-13.03-50.00-13.11Q-51.08-13.19-52.44-13.27L-52.44-13.27Q-56.92-13.67-60.40-12.35Q-63.88-11.03-65.92-8.31Q-67.96-5.59-67.96-1.83L-67.96-1.83ZM-71.00 25.13L-71.00 25.13Q-72.44 25.13-73.24 24.33Q-74.04 23.53-74.04 22.09L-74.04 22.09L-74.04-15.59Q-74.04-17.03-73.24-17.83Q-72.44-18.63-71.00-18.63L-71.00-18.63Q-69.56-18.63-68.76-17.83Q-67.96-17.03-67.96-15.59L-67.96-15.59L-67.96 22.09Q-67.96 23.53-68.76 24.33Q-69.56 25.13-71.00 25.13Z"/><path fill="#2A2A2A" opacity="1" d="M3.32 25.53L3.32 25.53Q-3.08 25.53-8.12 22.65Q-13.16 19.77-16.04 14.73Q-18.92 9.69-18.92 3.29L-18.92 3.29Q-18.92-3.19-16.04-8.23Q-13.16-13.27-8.12-16.15Q-3.08-19.03 3.32-19.03L3.32-19.03Q9.72-19.03 14.72-16.15Q19.72-13.27 22.60-8.23Q25.48-3.19 25.56 3.29L25.56 3.29Q25.56 9.69 22.64 14.73Q19.72 19.77 14.72 22.65Q9.72 25.53 3.32 25.53ZM3.32 19.93L3.32 19.93Q7.96 19.93 11.64 17.77Q15.32 15.61 17.40 11.85Q19.48 8.09 19.48 3.29L19.48 3.29Q19.48-1.51 17.40-5.31Q15.32-9.11 11.64-11.27Q7.96-13.43 3.32-13.43L3.32-13.43Q-1.32-13.43-5.00-11.27Q-8.68-9.11-10.80-5.31Q-12.92-1.51-12.92 3.29L-12.92 3.29Q-12.92 8.09-10.80 11.85Q-8.68 15.61-5.00 17.77Q-1.32 19.93 3.32 19.93Z"/><path fill="#2A2A2A" opacity="1" d="M81.48 25.53L81.48 25.53Q75.08 25.53 70.04 22.65Q65.00 19.77 62.12 14.73Q59.24 9.69 59.24 3.29L59.24 3.29Q59.24-3.19 62.12-8.23Q65.00-13.27 70.04-16.15Q75.08-19.03 81.48-19.03L81.48-19.03Q87.88-19.03 92.88-16.15Q97.88-13.27 100.76-8.23Q103.64-3.19 103.72 3.29L103.72 3.29Q103.72 9.69 100.80 14.73Q97.88 19.77 92.88 22.65Q87.88 25.53 81.48 25.53ZM81.48 19.93L81.48 19.93Q86.12 19.93 89.80 17.77Q93.48 15.61 95.56 11.85Q97.64 8.09 97.64 3.29L97.64 3.29Q97.64-1.51 95.56-5.31Q93.48-9.11 89.80-11.27Q86.12-13.43 81.48-13.43L81.48-13.43Q76.84-13.43 73.16-11.27Q69.48-9.11 67.36-5.31Q65.24-1.51 65.24 3.29L65.24 3.29Q65.24 8.09 67.36 11.85Q69.48 15.61 73.16 17.77Q76.84 19.93 81.48 19.93Z"/><path fill="#2A2A2A" opacity="1" d="M145.16 25.13L145.16 25.13Q143.96 25.13 143.08 24.29Q142.20 23.45 142.20 22.01L142.20 22.01L142.20-18.55Q142.20-24.15 144.12-28.39Q146.04-32.63 149.80-34.99Q153.56-37.35 159.00-37.35L159.00-37.35Q160.36-37.35 161.24-36.55Q162.12-35.75 162.12-34.55L162.12-34.55Q162.12-33.35 161.24-32.55Q160.36-31.75 159.00-31.75L159.00-31.75Q155.40-31.75 153.04-30.11Q150.68-28.47 149.52-25.55Q148.36-22.63 148.36-18.87L148.36-18.87L148.36 22.01Q148.36 23.45 147.52 24.29Q146.68 25.13 145.16 25.13ZM157.96-11.67L137.08-11.67Q135.80-11.67 135.04-12.43Q134.28-13.19 134.28-14.31L134.28-14.31Q134.28-15.51 135.04-16.27Q135.80-17.03 137.08-17.03L137.08-17.03L157.96-17.03Q159.24-17.03 160.00-16.27Q160.76-15.51 160.76-14.31L160.76-14.31Q160.76-13.19 160.00-12.43Q159.24-11.67 157.96-11.67L157.96-11.67Z"/><path fill="#2A2A2A" opacity="1" d="M-137.00 101.47L-137.00 101.47Q-143.32 101.47-148.20 98.63Q-153.08 95.79-155.84 90.75Q-158.60 85.71-158.60 79.23L-158.60 79.23Q-158.60 72.67-155.72 67.63Q-152.84 62.59-147.80 59.75Q-142.76 56.91-136.36 56.91L-136.36 56.91Q-129.88 56.91-124.88 59.75Q-119.88 62.59-117.04 67.63Q-114.20 72.67-114.12 79.23L-114.12 79.23L-117.72 81.15Q-117.72 87.07-120.20 91.67Q-122.68 96.27-127.04 98.87Q-131.40 101.47-137.00 101.47ZM-136.20 118.35L-136.20 118.35Q-142.52 118.35-147.32 115.99Q-152.12 113.63-155.24 109.55L-155.24 109.55Q-156.12 108.59-156.00 107.47Q-155.88 106.35-154.84 105.63L-154.84 105.63Q-153.80 104.91-152.52 105.15Q-151.24 105.39-150.52 106.35L-150.52 106.35Q-148.20 109.23-144.56 110.99Q-140.92 112.75-136.12 112.75L-136.12 112.75Q-131.64 112.75-128.04 110.59Q-124.44 108.43-122.32 104.51Q-120.20 100.59-120.20 95.31L-120.20 95.31L-120.20 83.15L-117.88 78.51L-114.12 79.23L-114.12 95.55Q-114.12 102.03-117.00 107.19Q-119.88 112.35-124.84 115.35Q-129.80 118.35-136.20 118.35ZM-136.36 95.87L-136.36 95.87Q-131.64 95.87-128.00 93.75Q-124.36 91.63-122.28 87.87Q-120.20 84.11-120.20 79.23L-120.20 79.23Q-120.20 74.35-122.28 70.55Q-124.36 66.75-128.00 64.63Q-131.64 62.51-136.36 62.51L-136.36 62.51Q-141.08 62.51-144.76 64.63Q-148.44 66.75-150.52 70.55Q-152.60 74.35-152.60 79.23L-152.60 79.23Q-152.60 84.11-150.52 87.87Q-148.44 91.63-144.76 93.75Q-141.08 95.87-136.36 95.87Z"/><path fill="#2A2A2A" opacity="1" d="M-59.08 101.55L-59.08 101.55Q-64.76 101.55-69.24 99.19Q-73.72 96.83-76.32 92.27Q-78.92 87.71-78.92 81.15L-78.92 81.15L-78.92 60.35Q-78.92 59.07-78.04 58.19Q-77.16 57.31-75.88 57.31L-75.88 57.31Q-74.52 57.31-73.64 58.19Q-72.76 59.07-72.76 60.35L-72.76 60.35L-72.76 81.15Q-72.76 86.11-70.88 89.31Q-69.00 92.51-65.76 94.11Q-62.52 95.71-58.44 95.71L-58.44 95.71Q-54.52 95.71-51.36 94.19Q-48.20 92.67-46.36 90.03Q-44.52 87.39-44.52 84.03L-44.52 84.03L-40.12 84.03Q-40.36 89.07-42.88 93.03Q-45.40 96.99-49.64 99.27Q-53.88 101.55-59.08 101.55ZM-41.48 101.07L-41.48 101.07Q-42.84 101.07-43.68 100.23Q-44.52 99.39-44.52 97.95L-44.52 97.95L-44.52 60.35Q-44.52 58.99-43.68 58.15Q-42.84 57.31-41.48 57.31L-41.48 57.31Q-40.12 57.31-39.24 58.15Q-38.36 58.99-38.36 60.35L-38.36 60.35L-38.36 97.95Q-38.36 99.39-39.24 100.23Q-40.12 101.07-41.48 101.07Z"/><path fill="#2A2A2A" opacity="1" d="M59.16 101.07L59.16 101.07Q57.80 101.07 56.92 100.23Q56.04 99.39 56.04 98.03L56.04 98.03L56.04 74.99Q56.04 69.31 53.08 65.99Q50.12 62.67 45.48 62.67L45.48 62.67Q40.52 62.67 37.36 65.99Q34.20 69.31 34.28 74.83L34.28 74.83L28.76 74.83Q28.84 69.47 31.08 65.39Q33.32 61.31 37.24 59.07Q41.16 56.83 46.12 56.83L46.12 56.83Q50.84 56.83 54.48 59.07Q58.12 61.31 60.16 65.39Q62.20 69.47 62.20 74.99L62.20 74.99L62.20 98.03Q62.20 99.39 61.36 100.23Q60.52 101.07 59.16 101.07ZM3.16 101.07L3.16 101.07Q1.72 101.07 0.88 100.23Q0.04 99.39 0.04 98.03L0.04 98.03L0.04 60.43Q0.04 59.07 0.88 58.19Q1.72 57.31 3.16 57.31L3.16 57.31Q4.52 57.31 5.36 58.19Q6.20 59.07 6.20 60.43L6.20 60.43L6.20 98.03Q6.20 99.39 5.36 100.23Q4.52 101.07 3.16 101.07ZM31.24 101.07L31.24 101.07Q29.88 101.07 29.00 100.23Q28.12 99.39 28.12 98.03L28.12 98.03L28.12 74.99Q28.12 69.31 25.16 65.99Q22.20 62.67 17.56 62.67L17.56 62.67Q12.60 62.67 9.40 65.91Q6.20 69.15 6.20 74.35L6.20 74.35L1.80 74.35Q1.96 69.23 4.08 65.27Q6.20 61.31 9.88 59.07Q13.56 56.83 18.20 56.83L18.20 56.83Q22.92 56.83 26.56 59.07Q30.20 61.31 32.24 65.39Q34.28 69.47 34.28 74.99L34.28 74.99L34.28 98.03Q34.28 99.39 33.44 100.23Q32.60 101.07 31.24 101.07Z"/><path fill="#2A2A2A" opacity="1" d=""/><path fill="#2A2A2A" opacity="1" d=""/></g><g transform="matrix(2.3170659474010797 0 0 2.3170659474010797 148.86629834254128 251.5583108562838)"  >
<path style="stroke: none; stroke-width: 0; stroke-dasharray: none; stroke-linecap: butt; stroke-dashoffset: 0; stroke-linejoin: miter; stroke-miterlimit: 4; fill: rgb(42,42,42); fill-rule: nonzero; opacity: 1;"  transform=" translate(-49.99912257001996, -50)" d="M 75 47.65 c 0.05 1.62 -0.31 4.56 -0.76 6.11 C 72 65.26 61.12 77.59 50 81.25 c -11.12 -3.66 -22 -15.99 -24.24 -27.49 c -0.45 -1.55 -0.82 -4.49 -0.76 -6.11 v -28.9 h 50 V 47.65 z" stroke-linecap="round" />
</g>
<g transform="matrix(0.9218929627769411 0 0 0.9218929627769411 148.86629834254137 243.00000000000003)"  >
<path style="stroke: none; stroke-width: 0; stroke-dasharray: none; stroke-linecap: butt; stroke-dashoffset: 0; stroke-linejoin: miter; stroke-miterlimit: 4; fill: rgb(255,255,255); fill-rule: nonzero; opacity: 1;"  transform=" translate(-50, -50.5)" d="M 68 64 c 0 9.941 -8.06 18 -18 18 c -9.941 0 -18 -8.059 -18 -18 c 0 -18 18 -45 18 -45 S 68 46 68 64 z" stroke-linecap="round" />
</g>
</svg>